# xmcd
#
# Track frame offsets: 
#        150
#        22852
#        37181
#        55136
#        74384
#        90289
#        116553
#        130494
#        150726
#        169048
#        186454
#        206920
#        226359
#
# Disc length: 3235 seconds
#
# Revision: 0
# Processed by: cddbd v1.5.2PL0 Copyright (c) Steve Scherf et al.
# Submitted via: ExactAudioCopyFreeDBPlugin 1.0
#
DISCID=b30ca10d
DTITLE=Triggerfinger - By Absence of the Sun
DYEAR=2014
DGENRE=Alternative
TTITLE0=Game 
TTITLE1=Perfect Match 
TTITLE2=By Absence of the Sun 
TTITLE3=Big Hole
TTITLE4=Off the Rack 
TTITLE5=Black Panic
TTITLE6=There Isn't Time
TTITLE7=And There She Was, Lying in Wait
TTITLE8=Splendor in the Grass
TTITLE9=Halfway There
TTITLE10=Trail of Love
TTITLE11=Master of All Fears
TTITLE12=This Is The One
EXTD=
EXTT0=
EXTT1=
EXTT2=
EXTT3=
EXTT4=
EXTT5=
EXTT6=
EXTT7=
EXTT8=
EXTT9=
EXTT10=
EXTT11=
EXTT12=
PLAYORDER=
